<svg width="71" height="71" viewBox="0 0 71 71" fill="none" xmlns="http://www.w3.org/2000/svg">
<path d="M26.1854 47.9768L29.9855 44.1766C30.3461 44.2737 30.679 44.3986 31.0673 44.3986C33.5222 44.3986 35.5054 42.4153 35.5054 39.9604C35.5054 37.5056 33.5222 35.5223 31.0673 35.5223C28.6125 35.5223 26.6292 37.5056 26.6292 39.9604C26.6292 40.3488 26.754 40.6816 26.8511 41.0422L23.0509 44.8424L6.85175 28.6432C5.83931 27.6307 4.06405 27.7972 3.38446 29.0593C-2.41285 39.8495 -0.762417 53.5661 8.33575 62.6642C17.4339 71.7624 31.1644 73.4128 41.9407 67.6155C43.2167 66.9359 43.3831 65.1607 42.3568 64.1482L26.1854 47.9768ZM28.9869 0.00336138C27.711 -0.0659844 26.6292 0.946465 26.6292 2.22243V6.60508C26.6292 7.78396 27.5445 8.7548 28.7096 8.81028C46.6563 9.78112 61.0802 24.3437 62.1204 42.3043C62.1897 43.4693 63.1606 44.3847 64.3256 44.3847H68.7776C70.0535 44.3847 71.066 43.3029 70.9966 42.0269C69.8178 19.3925 51.6214 1.19611 28.9869 0.00336138ZM29.0285 13.3178C27.7387 13.2207 26.6292 14.247 26.6292 15.5507V20.0027C26.6292 21.1677 27.5307 22.1247 28.6818 22.2079C39.3333 23.0816 47.8213 31.6667 48.7782 42.3459C48.8892 43.4971 49.8323 44.3847 50.9834 44.3847H55.4493C56.7391 44.3847 57.7793 43.2752 57.6822 41.9853C56.5172 26.7154 44.2985 14.4966 29.0285 13.3178Z" fill="url(#paint0_linear_510_1040)"/>
<defs>
<linearGradient id="paint0_linear_510_1040" x1="35.5" y1="0" x2="35.5" y2="71" gradientUnits="userSpaceOnUse">
<stop stop-color="#264EEE"/>
<stop offset="1" stop-color="#7D3E93"/>
</linearGradient>
</defs>
</svg>
